<?xml version="1.0" encoding="utf-8"?>
<!-- Generator: Adobe Illustrator 19.0.1, SVG Export Plug-In . SVG Version: 6.00 Build 0)  -->
<svg version="1.1"
	 id="Layer_1" xmlns:cc="http://creativecommons.org/ns#" xmlns:rdf="http://www.w3.org/1999/02/22-rdf-syntax-ns#" xmlns:dc="http://purl.org/dc/elements/1.1/"
	 xmlns="http://www.w3.org/2000/svg" xmlns:xlink="http://www.w3.org/1999/xlink" x="0px" y="0px" viewBox="-155 247 300 300"
	 style="enable-background:new -155 247 300 300;" xml:space="preserve">
<style type="text/css">
	.st0{fill:#8C7B6B;}
</style>
<g transform="matrix(1.25,0,0,-1.25,-168.20679,768.96164)">
	<g transform="matrix(5.0613431,0,0,5.0613431,-123.1125,-2912.6664)">
		<g>
			<g>
				<g transform="translate(90.2891,657.5276)">
					<path class="st0" d="M-25.1-38.4c-0.1-0.1-0.1-0.1-0.1-0.1c-3.3-3.2-7.6-5.3-12.1-5.9c0,0-0.3,0-0.5-0.1
						c0.2,0.1,0.5,0.3,0.5,0.3c1.2,0.9,3.6,2.8,5.7,5.7c0,0,0,0,0,0C-31.7-38.4-25.1-38.4-25.1-38.4z M-33-38.4
						c0-0.1-0.1-0.1-0.1-0.1c-1.9-2.5-4-4.2-5.4-5.2c0,0-0.9-0.6-1.2-0.8v6.1C-39.7-38.4-33-38.4-33-38.4z M-40.7-38.4v-6.1
						c-0.2,0.1-1.2,0.8-1.2,0.8c-1.4,1-3.5,2.7-5.4,5.2c0,0,0,0.1-0.1,0.1C-47.4-38.4-40.7-38.4-40.7-38.4z M-48.7-38.4
						C-48.7-38.4-48.7-38.4-48.7-38.4c1.5-2.2,3.4-4.1,5.7-5.8c0,0,0.2-0.1,0.4-0.3c-0.2,0-0.4,0.1-0.4,0.1
						c-4.6,0.6-8.7,2.6-12.1,5.9c0,0-0.1,0.1-0.1,0.1C-55.2-38.4-48.7-38.4-48.7-38.4z M-20.2-30.9C-20.3-31-20.3-31-20.2-30.9
						c-0.9-2.4-2.2-4.5-3.9-6.4c0,0,0,0,0,0H-31c0,0.1,0.1,0.1,0.1,0.1c1.2,2,2,4,2.4,6.2c0,0,0,0,0,0.1
						C-28.5-30.9-20.2-30.9-20.2-30.9z M-29.6-30.9C-29.6-31-29.6-31-29.6-30.9c-0.5-2.3-1.4-4.4-2.7-6.4c0,0,0,0,0,0h-7.4v6.4
						H-29.6z M-40.7-30.9v-6.4h-7.4c0,0,0,0,0,0c-1.3,2-2.2,4.1-2.6,6.3c0,0,0,0,0,0.1H-40.7z M-51.9-30.9
						C-51.9-31-51.9-31-51.9-30.9c0.5-2.2,1.3-4.3,2.4-6.3c0,0,0-0.1,0.1-0.1h-6.8c0,0,0,0,0,0c-1.6,1.9-2.9,4-3.8,6.3l0,0.1H-51.9
						L-51.9-30.9z M-19.9-16.6C-19.8-16.6-19.8-16.7-19.9-16.6c0.7-2.2,1.1-4.4,1.1-6.6c0-2.3-0.4-4.5-1.1-6.6c0,0,0,0,0-0.1h-40.6
						c0,0,0,0.1,0,0.1c-0.7,2.1-1,4.4-1.1,6.6c0,2.3,0.4,4.5,1,6.6c0,0,0,0,0,0.1H-19.9L-19.9-16.6z M-24.1-9.2
						C-24.1-9.2-24.1-9.2-24.1-9.2c1.7-1.9,2.9-4,3.8-6.3c0,0,0,0,0-0.1h-8.2c0,0,0,0.1,0,0.1c-0.4,2.2-1.3,4.3-2.4,6.2
						c0,0,0,0.1-0.1,0.1C-31-9.2-24.1-9.2-24.1-9.2z M-32.2-9.2C-32.2-9.2-32.2-9.2-32.2-9.2c1.3-2,2.2-4.1,2.7-6.3c0,0,0,0,0-0.1
						h-10.1v6.4H-32.2z M-40.7-9.2v-6.4h-10.1c0,0,0,0.1,0,0.1c0.5,2.2,1.4,4.3,2.6,6.3c0,0,0,0,0,0H-40.7z M-49.4-9.2
						c0-0.1-0.1-0.1-0.1-0.1c-1.2-2-2-4-2.4-6.2c0,0,0,0,0-0.1h-8.2c0,0,0,0.1,0,0.1c0.9,2.3,2.2,4.4,3.8,6.3c0,0,0,0,0,0H-49.4z
						 M-31.7-8.1c-1.5,2.1-3.4,4.1-5.7,5.8c0,0-0.2,0.1-0.4,0.3c0.2,0,0.4-0.1,0.4-0.1c4.6-0.6,8.7-2.6,12.1-5.9
						c0,0,0.1-0.1,0.1-0.1L-31.7-8.1C-31.7-8.1-31.7-8.1-31.7-8.1 M-39.7-2c0.2-0.1,1.2-0.8,1.2-0.8c1.4-1,3.5-2.7,5.4-5.2
						c0,0,0-0.1,0.1-0.1h-6.7V-2z M-47.3-8c1.9,2.5,4,4.2,5.4,5.2c0,0,0.9,0.6,1.2,0.8v-6.1h-6.7C-47.3-8-47.3-8-47.3-8 M-55.1-8
						C-51.8-4.8-47.5-2.7-43-2c0,0,0.3,0,0.5,0.1C-42.7-2.1-43-2.3-43-2.3c-1.2-0.9-3.6-2.8-5.7-5.7c0,0,0,0,0,0h-6.5
						C-55.1-8-55.1-8-55.1-8 M-40.3-0.8C-52.6-0.9-62.6-11-62.6-23.3c0-12.4,10.1-22.4,22.4-22.4c12.4,0,22.4,10.1,22.4,22.4
						c0,12.3-10,22.4-22.3,22.4H-40.3z"/>
				</g>
				<g transform="translate(79.1144,678.0726)">
					<path class="st0" d="M-24.7-39.2c-0.5-0.2-0.6-0.7-0.9-1.7l-1.6-5.7c-0.3-1.1-0.3-1.5-0.1-1.7l0-0.1h-2.7l0,0.1
						c0.4,0.2,0.5,0.5,0.9,1.6l1.6,5.6c0.3,1.1,0.4,1.5,0.2,1.8v0.1l2.7,0C-24.7-39.1-24.7-39.2-24.7-39.2z"/>
				</g>
				<g transform="translate(54.8852,670.959)">
					<path class="st0" d="M-23.7-38.9c0.2-1.3,0.9-2,2.4-1.9c1.1,0.1,1.6,0.8,1.6,1.6c0,0.7-0.4,1.2-1.2,1.8l-0.4,0.3
						c-0.9,0.7-1.8,1.3-1.8,2.5c0,1.7,1.4,2.7,3.2,2.8c0.5,0,1.2,0,1.7-0.2c0.3-0.1,0.6-0.2,0.8-0.2l-0.4-1.6l-0.1,0
						c-0.2,1-0.7,1.6-2,1.4c-1-0.1-1.4-0.9-1.4-1.5c0-0.7,0.4-1.1,1.2-1.6l0.4-0.3c1-0.7,1.9-1.4,1.9-2.6c0-1.9-1.5-3-3.6-3
						c-1.2,0-2.4,0.4-2.8,0.8c0,0.2,0.3,1,0.5,1.7C-23.8-39-23.7-38.9-23.7-38.9z"/>
				</g>
				<g transform="translate(87.4716,678.1851)">
					<path class="st0" d="M-25-39.2c-0.1-0.4-0.4-1.1-0.5-1.6h-0.1c-0.4,1.1-1.5,1-2.2,1l-0.1,0c-0.5,0-0.7-0.1-0.8-0.6l-0.8-3h0.3
						c1.3,0,2.1-0.1,2.5,0.4h0.1l-0.5-1.7h-0.1c-0.2,0.8-1.1,0.7-2.2,0.7h-0.3l-0.7-2.6c-0.3-1-0.4-1.4-0.1-1.7l0-0.1l-2.7,0v0.1
						c0.5,0.2,0.6,0.6,0.9,1.7l1.6,5.7c0.3,1,0.4,1.4,0.1,1.7l0,0.1C-30.7-39.2-25-39.2-25-39.2z"/>
				</g>
				<g transform="translate(95.2826,678.1846)">
					<path class="st0" d="M-25.3-39.2c-0.2-0.5-0.3-1-0.5-1.6l-0.1,0c-0.4,1.1-1.6,1-2,1h-0.1l-2-6.8c-0.3-1-0.4-1.4-0.1-1.7l0-0.1
						h-2.7l0,0.1c0.5,0.2,0.6,0.7,0.9,1.7l2,6.8h-0.2c-0.6,0-1.7,0.1-2.4-1l-0.1,0c0.2,0.5,0.4,1.1,0.6,1.6H-25.3z"/>
				</g>
				<g transform="translate(74.8934,678.0659)">
					<path class="st0" d="M-24.5-39.2c-0.4-0.3-0.6-0.7-1.1-1.6c-0.8-1.5-3.7-7.1-3.9-7.6h-1l-0.6,5.9h0l-3.2-5.9h-0.8l-0.8,7.5
						c-0.1,0.9-0.1,1.5-0.4,1.7l0,0.1h2.6l0-0.1c-0.3-0.3-0.4-0.7-0.3-1.6l0.4-4.5h0l3.3,6.1h0.7l0.6-6.1h0c0.7,1.4,1.7,3.3,2.4,4.6
						c0.6,1.1,0.3,1.3,0.3,1.5v0.1l1.8,0C-24.5-39.1-24.5-39.2-24.5-39.2z"/>
				</g>
			</g>
		</g>
	</g>
</g>
</svg>
